<mxfile host="app.diagrams.net" modified="2024-05-23T10:55:32.732Z" agent="Mozilla/5.0 (Windows NT 10.0; Win64; x64) AppleWebKit/537.36 (KHTML, like Gecko) Chrome/121.0.0.0 Safari/537.36" etag="czLxNxSRPqcggAQTLt03" version="24.4.6" type="device">
  <diagram name="Página-1" id="HJEY8nci2Mm5O8kuZA7D">
    <mxGraphModel dx="1434" dy="750" grid="1" gridSize="10" guides="1" tooltips="1" connect="1" arrows="1" fold="1" page="1" pageScale="1" pageWidth="827" pageHeight="1169" math="0" shadow="0">
      <root>
        <mxCell id="0" />
        <mxCell id="1" parent="0" />
        <mxCell id="5qQOkAtBmgt1MsHWn4n_-1" style="edgeStyle=orthogonalEdgeStyle;rounded=0;orthogonalLoop=1;jettySize=auto;html=1;entryX=0.5;entryY=0;entryDx=0;entryDy=0;" edge="1" parent="1" source="5qQOkAtBmgt1MsHWn4n_-2" target="5qQOkAtBmgt1MsHWn4n_-5">
          <mxGeometry relative="1" as="geometry" />
        </mxCell>
        <mxCell id="5qQOkAtBmgt1MsHWn4n_-2" value="Cadastro Matéria&lt;div&gt;Prima&lt;/div&gt;" style="ellipse;whiteSpace=wrap;html=1;" vertex="1" parent="1">
          <mxGeometry x="90" y="80" width="120" height="80" as="geometry" />
        </mxCell>
        <mxCell id="5qQOkAtBmgt1MsHWn4n_-3" style="edgeStyle=orthogonalEdgeStyle;rounded=0;orthogonalLoop=1;jettySize=auto;html=1;exitX=1;exitY=0.5;exitDx=0;exitDy=0;entryX=0.5;entryY=0;entryDx=0;entryDy=0;" edge="1" parent="1" source="5qQOkAtBmgt1MsHWn4n_-5" target="5qQOkAtBmgt1MsHWn4n_-9">
          <mxGeometry relative="1" as="geometry" />
        </mxCell>
        <mxCell id="5qQOkAtBmgt1MsHWn4n_-4" style="edgeStyle=orthogonalEdgeStyle;rounded=0;orthogonalLoop=1;jettySize=auto;html=1;entryX=0.5;entryY=0;entryDx=0;entryDy=0;" edge="1" parent="1" source="5qQOkAtBmgt1MsHWn4n_-5" target="5qQOkAtBmgt1MsHWn4n_-7">
          <mxGeometry relative="1" as="geometry" />
        </mxCell>
        <mxCell id="5qQOkAtBmgt1MsHWn4n_-5" value="Tem Cadastro?" style="rhombus;whiteSpace=wrap;html=1;" vertex="1" parent="1">
          <mxGeometry x="90" y="220" width="120" height="90" as="geometry" />
        </mxCell>
        <mxCell id="5qQOkAtBmgt1MsHWn4n_-6" style="edgeStyle=orthogonalEdgeStyle;rounded=0;orthogonalLoop=1;jettySize=auto;html=1;entryX=0.5;entryY=0;entryDx=0;entryDy=0;" edge="1" parent="1" source="5qQOkAtBmgt1MsHWn4n_-7" target="5qQOkAtBmgt1MsHWn4n_-11">
          <mxGeometry relative="1" as="geometry" />
        </mxCell>
        <mxCell id="5qQOkAtBmgt1MsHWn4n_-7" value="Listar" style="rounded=0;whiteSpace=wrap;html=1;" vertex="1" parent="1">
          <mxGeometry x="90" y="370" width="120" height="60" as="geometry" />
        </mxCell>
        <mxCell id="5qQOkAtBmgt1MsHWn4n_-8" style="edgeStyle=orthogonalEdgeStyle;rounded=0;orthogonalLoop=1;jettySize=auto;html=1;entryX=0.5;entryY=0;entryDx=0;entryDy=0;" edge="1" parent="1" source="5qQOkAtBmgt1MsHWn4n_-9" target="5qQOkAtBmgt1MsHWn4n_-14">
          <mxGeometry relative="1" as="geometry" />
        </mxCell>
        <mxCell id="5qQOkAtBmgt1MsHWn4n_-9" value="Criar cadastro (nome,telefone,&lt;div&gt;endereço)&lt;/div&gt;" style="rounded=0;whiteSpace=wrap;html=1;" vertex="1" parent="1">
          <mxGeometry x="270" y="310" width="120" height="60" as="geometry" />
        </mxCell>
        <mxCell id="5qQOkAtBmgt1MsHWn4n_-10" style="edgeStyle=orthogonalEdgeStyle;rounded=0;orthogonalLoop=1;jettySize=auto;html=1;entryX=0.5;entryY=0;entryDx=0;entryDy=0;" edge="1" parent="1" source="5qQOkAtBmgt1MsHWn4n_-11" target="5qQOkAtBmgt1MsHWn4n_-16">
          <mxGeometry relative="1" as="geometry" />
        </mxCell>
        <mxCell id="5qQOkAtBmgt1MsHWn4n_-11" value="Buscar Matéria Prima" style="rounded=0;whiteSpace=wrap;html=1;" vertex="1" parent="1">
          <mxGeometry x="90" y="480" width="120" height="60" as="geometry" />
        </mxCell>
        <mxCell id="5qQOkAtBmgt1MsHWn4n_-12" value="não" style="text;html=1;align=center;verticalAlign=middle;resizable=0;points=[];autosize=1;strokeColor=none;fillColor=none;" vertex="1" parent="1">
          <mxGeometry x="210" y="268" width="40" height="30" as="geometry" />
        </mxCell>
        <mxCell id="5qQOkAtBmgt1MsHWn4n_-13" value="sim" style="edgeStyle=orthogonalEdgeStyle;rounded=0;orthogonalLoop=1;jettySize=auto;html=1;entryX=1;entryY=0.5;entryDx=0;entryDy=0;" edge="1" parent="1" source="5qQOkAtBmgt1MsHWn4n_-14" target="5qQOkAtBmgt1MsHWn4n_-7">
          <mxGeometry relative="1" as="geometry" />
        </mxCell>
        <mxCell id="5qQOkAtBmgt1MsHWn4n_-14" value="Dados&lt;div&gt;válidos?&lt;/div&gt;" style="rhombus;whiteSpace=wrap;html=1;" vertex="1" parent="1">
          <mxGeometry x="290" y="400" width="80" height="80" as="geometry" />
        </mxCell>
        <mxCell id="5qQOkAtBmgt1MsHWn4n_-15" value="não" style="edgeStyle=orthogonalEdgeStyle;rounded=0;orthogonalLoop=1;jettySize=auto;html=1;entryX=1.008;entryY=0.383;entryDx=0;entryDy=0;entryPerimeter=0;" edge="1" parent="1" source="5qQOkAtBmgt1MsHWn4n_-14" target="5qQOkAtBmgt1MsHWn4n_-9">
          <mxGeometry x="0.0841" relative="1" as="geometry">
            <Array as="points">
              <mxPoint x="410" y="440" />
              <mxPoint x="410" y="333" />
            </Array>
            <mxPoint as="offset" />
          </mxGeometry>
        </mxCell>
        <mxCell id="5qQOkAtBmgt1MsHWn4n_-16" value="Apagar Matéria&amp;nbsp;&lt;div&gt;Prima&lt;/div&gt;" style="rounded=0;whiteSpace=wrap;html=1;" vertex="1" parent="1">
          <mxGeometry x="30" y="580" width="120" height="60" as="geometry" />
        </mxCell>
        <mxCell id="5qQOkAtBmgt1MsHWn4n_-17" style="edgeStyle=orthogonalEdgeStyle;rounded=0;orthogonalLoop=1;jettySize=auto;html=1;entryX=0;entryY=0.5;entryDx=0;entryDy=0;" edge="1" parent="1" source="5qQOkAtBmgt1MsHWn4n_-18" target="5qQOkAtBmgt1MsHWn4n_-22">
          <mxGeometry relative="1" as="geometry">
            <mxPoint x="370" y="610" as="targetPoint" />
          </mxGeometry>
        </mxCell>
        <mxCell id="5qQOkAtBmgt1MsHWn4n_-18" value="Atualizar Matéria&lt;div&gt;Prima&lt;/div&gt;" style="rounded=0;whiteSpace=wrap;html=1;" vertex="1" parent="1">
          <mxGeometry x="180" y="580" width="120" height="60" as="geometry" />
        </mxCell>
        <mxCell id="5qQOkAtBmgt1MsHWn4n_-19" style="edgeStyle=orthogonalEdgeStyle;rounded=0;orthogonalLoop=1;jettySize=auto;html=1;exitX=0.75;exitY=1;exitDx=0;exitDy=0;entryX=0.433;entryY=0.017;entryDx=0;entryDy=0;entryPerimeter=0;" edge="1" parent="1" source="5qQOkAtBmgt1MsHWn4n_-11" target="5qQOkAtBmgt1MsHWn4n_-18">
          <mxGeometry relative="1" as="geometry" />
        </mxCell>
        <mxCell id="5qQOkAtBmgt1MsHWn4n_-20" value="sim" style="edgeStyle=orthogonalEdgeStyle;rounded=0;orthogonalLoop=1;jettySize=auto;html=1;entryX=1;entryY=0.5;entryDx=0;entryDy=0;" edge="1" parent="1" source="5qQOkAtBmgt1MsHWn4n_-22" target="5qQOkAtBmgt1MsHWn4n_-2">
          <mxGeometry relative="1" as="geometry">
            <Array as="points">
              <mxPoint x="500" y="610" />
              <mxPoint x="500" y="120" />
            </Array>
          </mxGeometry>
        </mxCell>
        <mxCell id="5qQOkAtBmgt1MsHWn4n_-21" value="não" style="edgeStyle=orthogonalEdgeStyle;rounded=0;orthogonalLoop=1;jettySize=auto;html=1;entryX=0.5;entryY=1;entryDx=0;entryDy=0;" edge="1" parent="1" source="5qQOkAtBmgt1MsHWn4n_-22" target="5qQOkAtBmgt1MsHWn4n_-18">
          <mxGeometry relative="1" as="geometry">
            <Array as="points">
              <mxPoint x="410" y="700" />
              <mxPoint x="240" y="700" />
            </Array>
          </mxGeometry>
        </mxCell>
        <mxCell id="5qQOkAtBmgt1MsHWn4n_-22" value="Dados Válidos?" style="rhombus;whiteSpace=wrap;html=1;" vertex="1" parent="1">
          <mxGeometry x="370" y="570" width="80" height="80" as="geometry" />
        </mxCell>
      </root>
    </mxGraphModel>
  </diagram>
</mxfile>
